<svg width="1200" height="630" viewBox="0 0 1200 630" fill="none" xmlns="http://www.w3.org/2000/svg">
  <!-- Background -->
  <rect width="1200" height="630" fill="#06060A"/>

  <!-- Subtle grid lines -->
  <defs>
    <pattern id="grid" width="60" height="60" patternUnits="userSpaceOnUse">
      <path d="M 60 0 L 0 0 0 60" fill="none" stroke="rgba(255,255,255,0.04)" stroke-width="1"/>
    </pattern>
    <radialGradient id="glow" cx="50%" cy="50%" r="50%">
      <stop offset="0%" stop-color="#00d4aa" stop-opacity="0.18"/>
      <stop offset="100%" stop-color="#06060A" stop-opacity="0"/>
    </radialGradient>
    <radialGradient id="glow2" cx="20%" cy="80%" r="40%">
      <stop offset="0%" stop-color="#6366f1" stop-opacity="0.12"/>
      <stop offset="100%" stop-color="#06060A" stop-opacity="0"/>
    </radialGradient>
  </defs>

  <rect width="1200" height="630" fill="url(#grid)"/>
  <rect width="1200" height="630" fill="url(#glow)"/>
  <rect width="1200" height="630" fill="url(#glow2)"/>

  <!-- Left accent bar -->
  <rect x="0" y="0" width="6" height="630" fill="#00d4aa"/>

  <!-- Top accent line -->
  <rect x="0" y="0" width="1200" height="3" fill="#00d4aa" opacity="0.6"/>

  <!-- Bottom accent line -->
  <rect x="0" y="627" width="1200" height="3" fill="#00d4aa" opacity="0.6"/>

  <!-- ASET dot-matrix logo — scaled up 5x, centered left -->
  <g transform="translate(80, 200) scale(5.5)">
    <ellipse cx="0.303" cy="2.426" rx="0.303" ry="0.303" fill="white"/>
    <ellipse cx="5.752" cy="2.426" rx="0.303" ry="0.303" fill="white"/>
    <ellipse cx="11.213" cy="2.426" rx="0.303" ry="0.303" fill="white"/>
    <ellipse cx="16.662" cy="2.428" rx="1.818" ry="1.818" fill="white"/>
    <ellipse cx="22.114" cy="2.426" rx="2.121" ry="2.122" fill="white"/>
    <ellipse cx="27.577" cy="2.425" rx="2.424" ry="2.425" fill="white"/>
    <ellipse cx="0.303" cy="7.885" rx="0.303" ry="0.303" fill="white"/>
    <ellipse cx="5.752" cy="7.885" rx="0.303" ry="0.303" fill="white"/>
    <ellipse cx="11.207" cy="7.875" rx="1.515" ry="1.515" fill="white"/>
    <ellipse cx="16.662" cy="7.883" rx="1.818" ry="1.818" fill="white"/>
    <ellipse cx="22.114" cy="7.883" rx="2.121" ry="2.122" fill="white"/>
    <ellipse cx="27.578" cy="7.883" rx="2.121" ry="2.122" fill="white"/>
    <ellipse cx="0.303" cy="13.34" rx="0.303" ry="0.303" fill="white"/>
    <ellipse cx="5.752" cy="13.34" rx="0.303" ry="0.303" fill="white"/>
    <ellipse cx="11.212" cy="13.335" rx="1.212" ry="1.212" fill="white"/>
    <ellipse cx="16.672" cy="13.332" rx="1.515" ry="1.515" fill="white"/>
    <ellipse cx="22.123" cy="13.332" rx="1.818" ry="1.818" fill="white"/>
    <ellipse cx="27.572" cy="13.332" rx="1.818" ry="1.818" fill="white"/>
    <ellipse cx="0.303" cy="18.791" rx="0.303" ry="0.303" fill="white"/>
    <ellipse cx="5.755" cy="18.794" rx="0.606" ry="0.606" fill="white"/>
    <ellipse cx="11.214" cy="18.794" rx="0.909" ry="0.909" fill="white"/>
    <ellipse cx="16.661" cy="18.79" rx="1.212" ry="1.212" fill="white"/>
    <ellipse cx="22.121" cy="18.789" rx="1.515" ry="1.515" fill="white"/>
    <ellipse cx="27.577" cy="18.791" rx="0.303" ry="0.303" fill="white"/>
    <ellipse cx="0.303" cy="24.241" rx="0.303" ry="0.303" fill="white"/>
    <ellipse cx="5.755" cy="24.249" rx="0.606" ry="0.606" fill="white"/>
    <ellipse cx="11.208" cy="24.249" rx="0.606" ry="0.606" fill="white"/>
    <ellipse cx="16.662" cy="24.241" rx="0.303" ry="0.303" fill="white"/>
    <ellipse cx="22.123" cy="24.241" rx="0.303" ry="0.303" fill="white"/>
    <ellipse cx="27.577" cy="24.241" rx="0.303" ry="0.303" fill="white"/>
    <ellipse cx="0.303" cy="29.698" rx="0.303" ry="0.303" fill="white"/>
    <ellipse cx="5.752" cy="29.698" rx="0.303" ry="0.303" fill="white"/>
    <ellipse cx="11.213" cy="29.698" rx="0.303" ry="0.303" fill="white"/>
    <ellipse cx="16.662" cy="29.698" rx="0.303" ry="0.303" fill="white"/>
    <ellipse cx="22.123" cy="29.698" rx="0.303" ry="0.303" fill="white"/>
    <ellipse cx="27.577" cy="29.698" rx="0.303" ry="0.303" fill="white"/>
  </g>

  <!-- ASET wordmark -->
  <text x="80" y="430" font-family="Arial Black, Arial, sans-serif" font-weight="900" font-size="110" fill="white" letter-spacing="-2">ASET</text>

  <!-- Accent underline under ASET -->
  <rect x="80" y="445" width="280" height="5" rx="3" fill="#00d4aa"/>

  <!-- Divider line -->
  <rect x="600" y="120" width="1" height="390" fill="rgba(255,255,255,0.08)"/>

  <!-- Right side content -->
  <!-- Main tagline -->
  <text x="650" y="200" font-family="Arial, sans-serif" font-weight="700" font-size="36" fill="white">Academic Safety &amp;</text>
  <text x="650" y="248" font-family="Arial, sans-serif" font-weight="700" font-size="36" fill="white">Evidencing Truth</text>

  <!-- Accent line under tagline -->
  <rect x="650" y="262" width="120" height="3" rx="2" fill="#00d4aa"/>

  <!-- Description -->
  <text x="650" y="310" font-family="Arial, sans-serif" font-size="22" fill="rgba(255,255,255,0.65)">Verify scientific claims against</text>
  <text x="650" y="340" font-family="Arial, sans-serif" font-size="22" fill="rgba(255,255,255,0.65)">1.2M+ peer-reviewed papers</text>
  <text x="650" y="370" font-family="Arial, sans-serif" font-size="22" fill="rgba(255,255,255,0.65)">in under 10 seconds.</text>

  <!-- Stats row -->
  <!-- Stat 1 -->
  <rect x="650" y="410" width="150" height="70" rx="10" fill="rgba(0,212,170,0.1)" stroke="#00d4aa" stroke-width="1" stroke-opacity="0.3"/>
  <text x="725" y="440" font-family="Arial Black, Arial, sans-serif" font-weight="900" font-size="22" fill="#00d4aa" text-anchor="middle">1.2M+</text>
  <text x="725" y="462" font-family="Arial, sans-serif" font-size="13" fill="rgba(255,255,255,0.5)" text-anchor="middle">Papers</text>

  <!-- Stat 2 -->
  <rect x="815" y="410" width="150" height="70" rx="10" fill="rgba(0,212,170,0.1)" stroke="#00d4aa" stroke-width="1" stroke-opacity="0.3"/>
  <text x="890" y="440" font-family="Arial Black, Arial, sans-serif" font-weight="900" font-size="22" fill="#00d4aa" text-anchor="middle">&lt;10s</text>
  <text x="890" y="462" font-family="Arial, sans-serif" font-size="13" fill="rgba(255,255,255,0.5)" text-anchor="middle">Verification</text>

  <!-- Stat 3 -->
  <rect x="980" y="410" width="150" height="70" rx="10" fill="rgba(0,212,170,0.1)" stroke="#00d4aa" stroke-width="1" stroke-opacity="0.3"/>
  <text x="1055" y="440" font-family="Arial Black, Arial, sans-serif" font-weight="900" font-size="22" fill="#00d4aa" text-anchor="middle">8</text>
  <text x="1055" y="462" font-family="Arial, sans-serif" font-size="13" fill="rgba(255,255,255,0.5)" text-anchor="middle">Domains</text>

  <!-- AWS badge -->
  <rect x="650" y="505" width="260" height="36" rx="18" fill="rgba(255,153,0,0.12)" stroke="rgba(255,153,0,0.4)" stroke-width="1"/>
  <text x="780" y="528" font-family="Arial, sans-serif" font-size="14" fill="rgba(255,153,0,0.9)" text-anchor="middle" font-weight="600">🏆 AWS 10K AIdeas — Top 50 Finalist</text>

  <!-- URL bottom left -->
  <text x="80" y="590" font-family="Arial, sans-serif" font-size="18" fill="rgba(0,212,170,0.7)">aset-ai.tech</text>
</svg>
